<?xml version="1.0"?>
<svg xmlns="http://www.w3.org/2000/svg" height="512px" viewBox="-110 0 474 474.72804" width="512px"><path d="m183.144531 20c5.523438-.015625 9.988281-4.503906 9.972657-10.027344-.015626-5.523437-4.503907-9.988281-10.027344-9.972656-35.730469 0-65.011719 27.246094-65.269532 60.789062l-.105468 13.574219h-17.199219c-55.371094 0-100.152344 42.199219-100.152344 93.964844v187.617187c0 65.5 56.824219 118.78125 127 118.78125s127-53.285156 127-118.78125v-187.617187c0-51.765625-44.78125-93.964844-100.152343-93.964844h-16.496094l.101562-13.421875c.175782-22.597656 20.484375-40.941406 45.328125-40.941406zm-44.78125 157.363281c0 3.316407-2.6875 6-6 6h-10c-3.3125 0-6-2.683593-6-6v-43c0-3.3125 2.6875-6 6-6h10c3.3125 0 6 2.6875 6 6zm-37.84375-83h16.84375v14.402344c-12.277343 2.316406-21.128906 13.105469-21 25.597656v43c-.128906 12.496094 8.722657 23.285157 21 25.601563v11.398437h-97v-46.035156c0-40.738281 35.808594-73.964844 80.15625-73.964844zm26.84375 360.363281c-59.148437 0-107-44.3125-107-98.78125v-121.582031h214v121.582031c0 54.46875-47.851562 98.78125-107 98.78125zm107-286.398437v46.035156h-97v-11.5c12.191407-2.394531 20.988281-13.074219 21-25.5v-43c-.011719-12.421875-8.808593-23.105469-21-25.5v-14.5h16.847657c44.34375 0 80.152343 33.226563 80.152343 73.964844zm0 0" fill="#FFFFFF"/></svg>
