<?xml version="1.0"?>
<svg xmlns="http://www.w3.org/2000/svg" height="512px" viewBox="0 0 512 512" width="512px"><path d="m467 60h-16v-15c0-24.8125-20.1875-45-45-45h-330c-24.8125 0-45 20.1875-45 45v15h-16c-8.285156 0-15 6.714844-15 15s6.714844 15 15 15h16v15c0 24.8125 20.1875 45 45 45h330c24.8125 0 45-20.1875 45-45v-15h16c8.269531 0 15 6.730469 15 15v66.578125c0 6.894531-4.671875 12.878906-11.34375 14.546875l-195.570312 48.640625c-20.070313 5.019531-34.085938 22.972656-34.085938 43.65625v22.578125h-45c-8.285156 0-15 6.714844-15 15s6.714844 15 15 15h15v136c0 24.8125 20.1875 45 45 45s45-20.1875 45-45v-136h15c8.285156 0 15-6.714844 15-15s-6.714844-15-15-15h-45v-22.578125c0-6.894531 4.671875-12.878906 11.34375-14.546875l195.570312-48.640625c20.070313-5.019531 34.085938-22.972656 34.085938-43.660156v-66.574219c0-24.8125-20.1875-45-45-45zm-46 45c0 8.269531-6.730469 15-15 15h-330c-8.269531 0-15-6.730469-15-15v-60c0-8.269531 6.730469-15 15-15h330c8.269531 0 15 6.730469 15 15zm-165 377c-8.269531 0-15-6.730469-15-15v-76h30v76c0 8.269531-6.730469 15-15 15zm15-121h-30v-30h30zm0 0" fill="#FFFFFF"/></svg>
